<?xml version="1.0" standalone="no"?>
<!DOCTYPE svg PUBLIC "-//W3C//DTD SVG 20010904//EN"
 "http://www.w3.org/TR/2001/REC-SVG-20010904/DTD/svg10.dtd">
<svg version="1.0" xmlns="http://www.w3.org/2000/svg"
 width="500.000000pt" height="500.000000pt" viewBox="0 0 500.000000 500.000000"
 preserveAspectRatio="xMidYMid meet">

<g transform="translate(0.000000,500.000000) scale(0.100000,-0.100000)"
fill="#000000" stroke="none">
<path d="M1810 2838 l0 -128 25 0 c24 0 25 2 25 68 l1 67 64 -70 65 -69 0 122
c0 115 -1 122 -20 122 -18 0 -20 -7 -20 -67 l0 -68 -70 75 -69 75 -1 -127z"/>
<path d="M2339 2948 c-35 -12 -55 -58 -40 -87 7 -12 30 -30 51 -41 65 -33 43
-86 -24 -60 -37 14 -38 13 -34 -12 7 -53 117 -44 136 10 13 37 -2 65 -49 91
-56 32 -49 80 9 65 12 -4 22 0 26 12 3 9 5 18 4 19 -12 9 -58 11 -79 3z"/>
<path d="M2660 2947 c-108 -38 -102 -196 9 -227 45 -12 81 -3 81 21 0 15 -7
19 -40 19 -50 0 -80 27 -80 73 0 50 24 77 69 77 27 0 41 5 45 16 4 9 5 18 4
20 -11 10 -59 11 -88 1z"/>
<path d="M2863 2946 c-78 -35 -95 -139 -34 -200 28 -27 38 -31 87 -31 50 0 59
3 84 32 93 103 -12 255 -137 199z m107 -56 c20 -20 26 -63 14 -95 -4 -8 -19
-22 -35 -31 -55 -28 -109 8 -109 73 0 44 30 73 75 73 22 0 43 -8 55 -20z"/>
<path d="M3090 2838 c0 -121 1 -128 20 -128 18 0 20 7 20 70 0 39 3 70 8 70 4
0 19 -14 34 -32 l27 -33 35 34 36 35 0 -72 c0 -65 2 -72 20 -72 19 0 20 7 20
128 l-1 127 -54 -59 -53 -59 -56 59 -55 59 -1 -127z"/>
<path d="M1220 2930 c0 -16 7 -20 30 -20 l30 0 0 -100 c0 -93 1 -100 20 -100
19 0 20 7 20 100 l0 100 30 0 c23 0 30 4 30 20 0 18 -7 20 -80 20 -73 0 -80
-2 -80 -20z"/>
<path d="M1430 2830 c0 -113 1 -120 20 -120 17 0 20 7 20 50 0 38 4 50 15 50
8 0 26 -22 40 -50 20 -40 30 -50 50 -50 l25 0 -27 49 -28 49 23 24 c26 28 28
64 6 96 -13 19 -24 22 -80 22 l-64 0 0 -120z m114 65 c10 -28 -5 -45 -40 -45
-31 0 -34 3 -34 30 0 27 3 30 34 30 21 0 36 -6 40 -15z"/>
<path d="M1640 2830 l0 -120 60 0 c57 0 60 1 60 25 0 23 -4 25 -40 25 -36 0
-40 3 -40 25 0 22 4 25 35 25 28 0 35 4 35 19 0 15 -8 21 -32 23 -28 2 -34 8
-36 31 -3 26 -1 27 37 27 34 0 41 3 41 20 0 18 -7 20 -60 20 l-60 0 0 -120z"/>
<path d="M2060 2829 l0 -122 56 6 c66 7 99 26 121 71 21 45 10 100 -27 138
-25 25 -36 28 -89 28 l-61 0 0 -121z m120 61 c24 -24 26 -77 4 -108 -11 -15
-25 -22 -50 -22 l-34 0 0 75 0 75 30 0 c17 0 39 -9 50 -20z"/>
<path d="M2494 2745 c-7 -18 3 -35 21 -35 15 0 28 27 19 41 -8 14 -34 11 -40
-6z"/>
</g>
</svg>
